<?xml version="1.0" encoding="UTF-8"?><svg id="Layer_2" xmlns="http://www.w3.org/2000/svg" viewBox="0 0 36.15 39.92"><defs><style>.cls-1{fill:#fff;}</style></defs><g id="Layer_1-2"><g id="Generative_Object"><polygon class="cls-1" points="17.75 39.89 17.73 39.92 17.73 39.88 17.75 39.89"/><path class="cls-1" d="M18.22,37.83l-.04.02s-.03-.01-.04-.02h.08Z"/><polygon class="cls-1" points="18.23 37.82 18.23 37.83 18.22 37.83 18.23 37.82"/><path class="cls-1" d="M16.88.31L1.06,8.6c-.58.3-.94.9-.94,1.55L0,29.31c0,.77.42,1.48,1.11,1.84,3.28,1.73,12.9,6.8,16.1,8.48.66.34,1.44.34,2.09-.02l15.82-8.61c.63-.34,1.02-1,1.02-1.72V10.19c0-.69-.38-1.32-.99-1.64L19.4.31c-.79-.41-1.74-.41-2.53,0ZM15.47,36.39l-12.39-6.52c-.63-.33-1.03-.99-1.02-1.7l.09-15.05c0-.7.75-1.15,1.37-.82l12.51,6.57c.67.35,1.08,1.04,1.08,1.8v14.73c0,.84-.9,1.39-1.65.99ZM17.13,16.94l-12.33-6.48c-.61-.32-.61-1.19,0-1.51l12.23-6.36c.69-.36,1.5-.36,2.19,0l12.27,6.41c.65.34.65,1.26,0,1.6l-12.24,6.35c-.66.34-1.46.34-2.12,0ZM33.2,29.7l-12.35,6.7c-.68.37-1.51-.12-1.51-.9v-14.69c0-.87.48-1.66,1.25-2.06l12.23-6.34c.58-.3,1.27.12,1.27.77v15.05c0,.62-.34,1.18-.88,1.48Z"/></g></g></svg>