<?xml version="1.0" encoding="UTF-8"?><svg id="Layer_2" xmlns="http://www.w3.org/2000/svg" viewBox="0 0 38.24 38.24"><defs><style>.cls-1{fill:#fff;}</style></defs><g id="Layer_1-2"><circle class="cls-1" cx="19.12" cy="19.12" r="3.74"/><path d="M19.12,15.76c1.85,0,3.36,1.51,3.36,3.36s-1.51,3.36-3.36,3.36-3.36-1.51-3.36-3.36,1.51-3.36,3.36-3.36M19.12,15.01c-2.27,0-4.11,1.84-4.11,4.11s1.84,4.11,4.11,4.11,4.11-1.84,4.11-4.11-1.84-4.11-4.11-4.11h0Z"/><path class="cls-1" d="M19.12,12.56c-.86,0-1.57-.7-1.57-1.57V1.94c0-.86.7-1.57,1.57-1.57s1.57.7,1.57,1.57v9.05c0,.86-.7,1.57-1.57,1.57Z"/><path d="M19.12.75c.66,0,1.19.53,1.19,1.19v9.05c0,.66-.53,1.19-1.19,1.19s-1.19-.53-1.19-1.19V1.94c0-.66.53-1.19,1.19-1.19M19.12,0c-1.07,0-1.94.87-1.94,1.94v9.05c0,1.07.87,1.94,1.94,1.94s1.94-.87,1.94-1.94V1.94c0-1.07-.87-1.94-1.94-1.94h0Z"/><path class="cls-1" d="M19.12,37.86c-.86,0-1.57-.7-1.57-1.57v-9.05c0-.86.7-1.57,1.57-1.57s1.57.7,1.57,1.57v9.05c0,.86-.7,1.57-1.57,1.57Z"/><path d="M19.12,26.05c.66,0,1.19.53,1.19,1.19v9.05c0,.66-.53,1.19-1.19,1.19s-1.19-.53-1.19-1.19v-9.05c0-.66.53-1.19,1.19-1.19M19.12,25.3c-1.07,0-1.94.87-1.94,1.94v9.05c0,1.07.87,1.94,1.94,1.94s1.94-.87,1.94-1.94v-9.05c0-1.07-.87-1.94-1.94-1.94h0Z"/><path class="cls-1" d="M24.86,14.94c-.42,0-.81-.16-1.11-.46s-.46-.69-.46-1.11.16-.81.46-1.11l6.4-6.4c.3-.3.69-.46,1.11-.46s.81.16,1.11.46c.61.61.61,1.61,0,2.22l-6.4,6.4c-.3.3-.69.46-1.11.46Z"/><path d="M31.26,5.78c.32,0,.62.12.84.35.23.23.35.52.35.84,0,.32-.12.62-.35.84l-6.4,6.4c-.22.23-.52.35-.84.35s-.62-.12-.84-.35c-.23-.23-.35-.52-.35-.84,0-.32.12-.62.35-.84l6.4-6.4c.23-.23.52-.35.84-.35M31.26,5.03c-.5,0-.99.19-1.37.57l-6.4,6.4c-.76.76-.76,1.99,0,2.75.38.38.88.57,1.37.57s.99-.19,1.37-.57l6.4-6.4c.76-.76.76-1.99,0-2.75-.38-.38-.88-.57-1.37-.57h0Z"/><path class="cls-1" d="M6.97,32.83c-.42,0-.81-.16-1.11-.46-.3-.29-.46-.69-.46-1.11s.16-.81.46-1.11l6.4-6.4c.3-.3.69-.46,1.11-.46s.81.16,1.11.46.46.69.46,1.11-.16.81-.46,1.11l-6.4,6.4c-.3.3-.69.46-1.11.46Z"/><path d="M13.37,23.67c.32,0,.62.12.84.35.23.22.35.52.35.84,0,.32-.12.62-.35.84l-6.4,6.4c-.23.23-.52.35-.84.35s-.62-.12-.84-.35c-.23-.22-.35-.52-.35-.84,0-.32.12-.62.35-.84l6.4-6.4c.23-.23.52-.35.84-.35M13.37,22.92c-.5,0-.99.19-1.37.57l-6.4,6.4c-.76.76-.76,1.99,0,2.75.38.38.88.57,1.37.57s.99-.19,1.37-.57l6.4-6.4c.76-.76.76-1.99,0-2.75-.38-.38-.88-.57-1.37-.57h0Z"/><path class="cls-1" d="M27.24,20.68c-.86,0-1.57-.7-1.57-1.57s.7-1.57,1.57-1.57h9.05c.86,0,1.57.7,1.57,1.57s-.7,1.57-1.57,1.57h-9.05Z"/><path d="M36.29,17.93c.66,0,1.19.53,1.19,1.19s-.53,1.19-1.19,1.19h-9.05c-.66,0-1.19-.53-1.19-1.19s.53-1.19,1.19-1.19h9.05M36.29,17.18h-9.05c-1.07,0-1.94.87-1.94,1.94s.87,1.94,1.94,1.94h9.05c1.07,0,1.94-.87,1.94-1.94s-.87-1.94-1.94-1.94h0Z"/><path class="cls-1" d="M1.94,20.68c-.86,0-1.57-.7-1.57-1.57s.7-1.57,1.57-1.57h9.05c.86,0,1.57.7,1.57,1.57s-.7,1.57-1.57,1.57H1.94Z"/><path d="M10.99,17.93c.66,0,1.19.53,1.19,1.19s-.53,1.19-1.19,1.19H1.94c-.66,0-1.19-.53-1.19-1.19s.53-1.19,1.19-1.19h9.05M10.99,17.18H1.94c-1.07,0-1.94.87-1.94,1.94s.87,1.94,1.94,1.94h9.05c1.07,0,1.94-.87,1.94-1.94s-.87-1.94-1.94-1.94h0Z"/><path class="cls-1" d="M31.26,32.83c-.42,0-.81-.16-1.11-.46l-6.4-6.4c-.3-.3-.46-.69-.46-1.11s.16-.81.46-1.11c.3-.3.69-.46,1.11-.46s.81.16,1.11.46l6.4,6.4c.3.3.46.69.46,1.11s-.16.81-.46,1.11c-.3.3-.69.46-1.11.46Z"/><path d="M24.86,23.67c.32,0,.62.12.84.35l6.4,6.4c.23.23.35.52.35.84,0,.32-.12.62-.35.84-.22.23-.52.35-.84.35s-.62-.12-.84-.35l-6.4-6.4c-.23-.23-.35-.52-.35-.84,0-.32.12-.62.35-.84.23-.23.52-.35.84-.35M24.86,22.92c-.5,0-.99.19-1.37.57-.76.76-.76,1.99,0,2.75l6.4,6.4c.38.38.88.57,1.37.57s.99-.19,1.37-.57c.76-.76.76-1.99,0-2.75l-6.4-6.4c-.38-.38-.88-.57-1.37-.57h0Z"/><path class="cls-1" d="M13.37,14.94c-.42,0-.81-.16-1.11-.46l-6.4-6.4c-.61-.61-.61-1.6,0-2.22.3-.3.69-.46,1.11-.46s.81.16,1.11.46l6.4,6.4c.3.29.46.69.46,1.11s-.16.81-.46,1.11c-.3.3-.69.46-1.11.46Z"/><path d="M6.97,5.78c.32,0,.62.12.84.35l6.4,6.4c.23.22.35.52.35.84,0,.32-.12.62-.35.84-.23.23-.52.35-.84.35s-.62-.12-.84-.35l-6.4-6.4c-.23-.22-.35-.52-.35-.84,0-.32.12-.62.35-.84.23-.23.52-.35.84-.35M6.97,5.03c-.5,0-.99.19-1.37.57-.76.76-.76,1.99,0,2.75l6.4,6.4c.38.38.88.57,1.37.57s.99-.19,1.37-.57c.76-.76.76-1.99,0-2.75l-6.4-6.4c-.38-.38-.88-.57-1.37-.57h0Z"/></g></svg>