<?xml version="1.0" encoding="UTF-8"?><svg id="Layer_2" xmlns="http://www.w3.org/2000/svg" viewBox="0 0 40.48 39.62"><defs><style>.cls-1{fill:#fff;}</style></defs><g id="Layer_1-2"><path class="cls-1" d="M40.25,26.89L21.54.52s0,0-.01-.01c-.02-.03-.05-.06-.08-.09-.02-.02-.03-.04-.05-.06-.03-.03-.06-.05-.09-.07-.02-.02-.04-.03-.06-.05-.03-.02-.06-.04-.09-.06-.02-.01-.05-.03-.07-.04-.03-.01-.06-.03-.09-.04-.03-.01-.06-.03-.09-.03,0,0,0,0-.01,0-.03,0-.06-.01-.08-.02-.03,0-.06-.02-.09-.02-.04,0-.07,0-.11,0-.03,0-.06,0-.09,0-.04,0-.08,0-.12,0-.03,0-.05,0-.08,0-.05,0-.1.02-.15.04-.01,0-.02,0-.03,0,0,0,0,0,0,0-.06.02-.12.05-.18.08-.02,0-.04.02-.05.03-.04.02-.07.04-.11.07-.02.02-.05.04-.07.06-.03.02-.05.04-.08.07-.03.03-.05.06-.07.08-.02.02-.03.04-.05.06h0s0,0,0,0L.23,27.39c-.21.29-.28.66-.2,1.01.08.35.32.64.64.8l20.2,10.29s.04.02.06.03c.02,0,.04.02.06.02.03.01.06.02.09.03.02,0,.04.01.05.02.03,0,.07.01.1.02.02,0,.03,0,.05,0,.05,0,.1,0,.15,0,.06,0,.11,0,.17-.01.02,0,.04,0,.06-.01.04,0,.07-.01.11-.02.02,0,.04-.02.06-.02.03-.01.06-.02.1-.04.02,0,.04-.02.06-.03.03-.01.05-.03.08-.04l17.82-10.8c.29-.18.5-.47.57-.8s0-.68-.2-.96ZM18.42,6.28c.31-.44,1-.22,1.02.31l.27,11.14.41,17.1c.02.69-.71,1.15-1.33.84l-14.77-7.53c-.5-.25-.66-.89-.33-1.35L18.42,6.28ZM22.57,34.67l-.66-27.61c-.01-.55.7-.79,1.02-.34l13.99,19.71c.31.43.18,1.04-.27,1.31l-12.68,7.69c-.6.36-1.37-.06-1.39-.76Z"/></g></svg>