<?xml version="1.0" encoding="UTF-8"?><svg id="Layer_2" xmlns="http://www.w3.org/2000/svg" viewBox="0 0 36.84 36.84"><defs><style>.cls-1{fill:#fff;}</style></defs><g id="Layer_1-2"><path class="cls-1" d="M36.84,18.42l-.02-.6C36.5,7.89,28.36,0,18.42,0h0C8.16,0-.14,8.39,0,18.68s8.24,18.02,18.16,18.16,18.68-8.16,18.68-18.42c0,0,0,0,0,0ZM21.52,34.18c-.09.08-.2.14-.33.16-.9.16-1.83.24-2.78.24s-1.87-.08-2.78-.24c-.12-.02-.23-.07-.33-.16-.89-.79-1.72-1.92-2.44-3.32-.62-1.21-1.14-2.56-1.54-4.03-.13-.46.26-.91.74-.83,1.98.32,4.12.49,6.35.49s4.37-.17,6.35-.49c.48-.08.87.37.74.83-.41,1.47-.92,2.82-1.54,4.03-.72,1.41-1.55,2.53-2.44,3.32ZM18.42,25.19c-2.63,0-5.05-.24-7.19-.66-.27-.05-.48-.26-.52-.53-.3-1.77-.46-3.65-.46-5.58s.16-3.81.46-5.58c.05-.27.25-.48.52-.53,2.14-.41,4.56-.66,7.19-.66s5.05.24,7.19.66c.27.05.48.26.52.53.3,1.77.46,3.65.46,5.58s-.16,3.81-.46,5.58c-.05.27-.25.48-.52.53-2.14.41-4.56.66-7.19.66ZM2.27,18.42c0-.7.05-1.39.13-2.06.02-.15.09-.29.19-.39,1.21-1.14,3.22-2.2,5.83-2.98.46-.14.91.25.84.73-.2,1.5-.31,3.08-.31,4.7s.11,3.2.31,4.7c.06.48-.38.86-.84.73-2.61-.78-4.62-1.84-5.83-2.98-.11-.1-.18-.24-.19-.39-.09-.67-.13-1.36-.13-2.06ZM15.32,2.66c.09-.08.2-.14.33-.16.9-.16,1.83-.24,2.78-.24s1.87.08,2.78.24c.12.02.23.07.33.16.89.79,1.72,1.92,2.44,3.32.62,1.21,1.14,2.56,1.54,4.03.13.46-.26.91-.74.83-1.98-.32-4.12-.49-6.35-.49s-4.37.17-6.35.49c-.48.08-.87-.37-.74-.83.41-1.47.92-2.82,1.54-4.03.72-1.41,1.55-2.53,2.44-3.32ZM28.42,12.99c2.61.78,4.62,1.84,5.83,2.98.11.1.18.24.19.39.09.67.13,1.36.13,2.06s-.05,1.39-.13,2.06c-.02.15-.09.29-.19.39-1.21,1.14-3.22,2.2-5.83,2.98-.46.14-.91-.25-.84-.73.2-1.5.31-3.08.31-4.7s-.11-3.2-.31-4.7c-.06-.48.38-.86.84-.73ZM32.49,13.21c-1.26-.65-2.74-1.21-4.4-1.66-.57-.15-1.01-.61-1.15-1.19-.51-2.05-1.22-3.89-2.07-5.43-.32-.57.3-1.2.89-.9,3.45,1.77,6.19,4.73,7.65,8.35.23.57-.37,1.11-.92.83ZM11.98,4.93c-.85,1.54-1.55,3.38-2.07,5.43-.14.57-.58,1.03-1.15,1.19-1.66.45-3.15,1.01-4.4,1.66-.54.28-1.14-.27-.92-.83,1.46-3.62,4.2-6.59,7.65-8.35.58-.3,1.2.33.89.9ZM4.35,23.63c1.26.65,2.74,1.21,4.4,1.66.57.15,1.01.61,1.15,1.19.51,2.05,1.22,3.89,2.07,5.43.32.57-.3,1.2-.89.9-3.45-1.77-6.19-4.73-7.65-8.35-.23-.57.37-1.11.92-.83ZM24.87,31.91c.85-1.54,1.55-3.38,2.07-5.43.14-.57.58-1.03,1.15-1.19,1.66-.45,3.15-1.01,4.4-1.66.54-.28,1.14.27.92.83-1.46,3.62-4.2,6.59-7.65,8.35-.58.3-1.2-.33-.89-.9Z"/></g></svg>