<?xml version="1.0" encoding="UTF-8"?><svg id="Layer_2" xmlns="http://www.w3.org/2000/svg" viewBox="0 0 41.64 32.75"><defs><style>.cls-1{fill:#fff;}</style></defs><g id="Layer_1-2"><path class="cls-1" d="M20.82,0C9.32,0,0,7.33,0,16.38s9.32,16.38,20.82,16.38,20.82-7.33,20.82-16.38S32.32,0,20.82,0ZM3.28,9.02C6.45,3.72,14.52,1.62,18.75,1.38c5.19-.29,12.18.75,16.9,4.74,5.59,4.73,4.62,10.88-.68,14.49-7.48,5.1-20.69,5.06-28.2.17C3.98,18.97-.08,14.64,3.28,9.02ZM35.43,26.02c-7.43,6.07-20.51,6.02-28.11.95-2.43-1.62-5.8-4.55-5.25-10.2,1.95,4.1,5.32,5.87,8.17,6.97,7.1,2.74,16.35,2.65,23.33-1.06,2.08-1.11,4.39-2.77,5.78-5.85.53,4.76-1.85,7.51-3.91,9.2Z"/><path class="cls-1" d="M11.35,19.55c5.07,3.98,13.9,3.88,18.95-.22,2.88-2.35,4.74-6.43,1.43-10.59-3-3.77-8.42-4.99-12.02-4.79-3.17.18-7.85,1.67-10.37,5.29-3.02,4.34-.54,8.31,2.02,10.31ZM11.69,8.8c1.71-2.73,6.3-3.63,8.54-3.68,2.42-.05,7.21.72,9.1,3.57.84,1.26.94,2.58.03,3.85-.11.15-.81.87-1.03,1.03l-.38.39c-1.51-1.46-4.35-2.37-7.41-2.37s-5.9.91-7.41,2.37l-.53-.54c-1.15-.89-2.23-2.53-.92-4.61ZM27.49,13.57c-1.71,1.15-4.25,1.82-6.94,1.82s-5.23-.67-6.94-1.82c1.58-1.23,4.17-1.98,6.94-1.98s5.36.75,6.94,1.98ZM10.3,10.25c-.17,1.64.53,2.89,1.24,3.68,3.54,3.91,14.33,3.85,17.92.11.84-.87,1.66-2.33,1.3-4.24,1.65,1.85,2.24,3.92.56,6.47-4.23,6.38-16.62,6.45-21,.56-1.53-2.06-1.75-4.59-.03-6.58Z"/><path class="cls-1" d="M27.1,12.75c-4.46-2.43-9.89-2.23-14.23.84-.09-.06-.17-.12-.26-.19l.53.54c1.51-1.46,4.35-2.37,7.41-2.37s5.9.91,7.41,2.37l.38-.39s-.05.03-.06.03c-.07,0-.99-.73-1.18-.84Z"/><path class="cls-1" d="M20.55,10.62c-3.35,0-6.36.99-8.07,2.64l.14.14c.09.07.17.13.26.19,4.34-3.06,9.77-3.26,14.23-.84.19.1,1.11.84,1.18.84,0,0,.03-.02.06-.03l.29-.29c-1.71-1.66-4.73-2.64-8.07-2.64Z"/></g></svg>